<?xml version="1.0" encoding="utf-8"?>
<!-- Generator: Adobe Illustrator 19.0.0, SVG Export Plug-In . SVG Version: 6.00 Build 0)  -->
<!-- <svg version="1.1" id="Camada_1" xmlns="http://www.w3.org/2000/svg" xmlns:xlink="http://www.w3.org/1999/xlink" x="0px" y="0px"
	 viewBox="-164 42.3 512 512" style="enable-background:new -164 42.3 512 512;" xml:space="preserve">
<style type="text/css">
	.st0{fill:#FFFFFF;}
</style>
<path class="st0" d="M312.8,62.7C275.3,32,217.3,36.4,180.9,72.9l-45.7,46l50.5,50.5c3.1,3.1,3.1,8.2,0,11.3L174.4,192
	c-3.1,3.1-8.2,3.1-11.3,0l-50.4-50.5l-45.1,45.4l50.3,50.4c3.1,3.1,3.1,8.2,0,11.3l-11.3,11.3c-3.1,3.1-8.2,3.1-11.3,0L45,209.7
	l-45.1,45.4L50,305.3c3.1,3.1,3.1,8.2,0,11.3l-11.3,11.3c-3.1,3.1-8.2,3.1-11.3,0l-50.1-50.2L-68,323.4v100.9l-89,89
	c-9.4,9.4-9.4,24.6,0,33.9c9.4,9.4,24.6,9.4,33.9,0l89-89h99.9L320,204.9C354.9,170,362.2,103.4,312.8,62.7z"/>
<head  xmlns=""></head>
</svg> -->


<svg aria-hidden="true" data-prefix="fal" data-icon="thermometer-quarter" role="img" xmlns="http://www.w3.org/2000/svg" viewBox="0 0 256 512" class="svg-inline--fa fa-thermometer-quarter fa-w-8 fa-7x">
	<path fill="#fff" d="M176 384c0 26.51-21.49 48-48 48s-48-21.49-48-48c0-20.898 13.359-38.667 32-45.258V272c0-8.837 7.163-16 16-16s16 7.163 16 16v66.742c18.641 6.591 32 24.36 32 45.258zm48-84.653c19.912 22.564 32 52.195 32 84.653 0 70.696-57.302 128-128 128-.299 0-.61-.001-.909-.003C56.789 511.509-.357 453.636.002 383.333.166 351.135 12.225 321.756 32 299.347V96c0-53.019 42.981-96 96-96s96 42.981 96 96v203.347zM224 384c0-39.894-22.814-62.144-32-72.553V96c0-35.29-28.71-64-64-64S64 60.71 64 96v215.447c-9.467 10.728-31.797 32.582-31.999 72.049-.269 52.706 42.619 96.135 95.312 96.501L128 480c52.935 0 96-43.065 96-96z" class=""></path>
</svg>
